
          <svg xmlns="http://www.w3.org/2000/svg" xmlns:cc="http://creativecommons.org/ns#" xmlns:rdf="http://www.w3.org/1999/02/22-rdf-syntax-ns#" version="1.1" width="1139.453125" height="341.5625">
            <defs>
              <style type="text/css">svg {
          background-color: #fff; }
        
        .root text,
        .root tspan {
          font: 12px Arial; }
        
        .root path {
          fill-opacity: 0;
          stroke-width: 2px;
          stroke: #000; }
        
        .root circle {
          fill: #6b6659;
          stroke-width: 2px;
          stroke: #000; }
        
        .anchor text, .any-character text {
          fill: #fff; }
        
        .anchor rect, .any-character rect {
          fill: #6b6659; }
        
        .escape text, .charset-escape text, .literal text {
          fill: #000; }
        
        .escape rect, .charset-escape rect {
          fill: #bada55; }
        
        .literal rect {
          fill: #dae9e5; }
        
        .charset .charset-box {
          fill: #cbcbba; }
        
        .subexp .subexp-label tspan,
        .charset .charset-label tspan,
        .match-fragment .repeat-label tspan {
          font-size: 10px; }
        
        .repeat-label {
          cursor: help; }
        
        .subexp .subexp-label tspan,
        .charset .charset-label tspan {
          dominant-baseline: text-after-edge; }
        
        .subexp .subexp-box {
          stroke: #908c83;
          stroke-dasharray: 6,2;
          stroke-width: 2px;
          fill-opacity: 0; }
        
        .quote {
          fill: #908c83; }
        </style>
            </defs>
            <metadata>
              <rdf:rdf>
                <cc:license rdf:about="http://creativecommons.org/licenses/by/3.0/">
                  <cc:permits rdf:resource="http://creativecommons.org/ns#Reproduction"></cc:permits>
                  <cc:permits rdf:resource="http://creativecommons.org/ns#Distribution"></cc:permits>
                  <cc:requires rdf:resource="http://creativecommons.org/ns#Notice"></cc:requires>
                  <cc:requires rdf:resource="http://creativecommons.org/ns#Attribution"></cc:requires>
                  <cc:permits rdf:resource="http://creativecommons.org/ns#DerivativeWorks"></cc:permits>
                </cc:license>
              </rdf:rdf>
            </metadata>
          <desc>Created with Snap</desc><g class="root" transform="matrix(1,0,0,1,15,10)"><g class="regexp match" transform="matrix(1,0,0,1,10,0)"><path d="M70.703125,154.7813H105.7031M286.25000551757813,154.781225H331.25M514.453125,154.781225H559.4532M699.343825,154.781225H744.3438M892.4063,154.781225H922.4063M997.734425,154.78125H1022.7344"></path><g class="match-fragment" transform="matrix(1,0,0,1,0,143.1563)"><g class="label anchor"><rect width="70.703125" height="23.25"></rect><text x="0" y="0" transform="matrix(1,0,0,1,5,16.625)"><tspan>Start of line</tspan></text></g></g><g class="match-fragment subexp" transform="matrix(1,0,0,1,80.7031,106.1562)"><rect rx="3" ry="3" class="subexp-box" transform="matrix(1,0,0,1,0,11)" width="215.54690551757812" height="69.2656478881836"></rect><text x="0" y="0" class="subexp-label" transform="matrix(1,0,0,1,0,11)"><tspan>positive lookahead</tspan></text><g class="regexp match" transform="matrix(1,0,0,1,10,21)"><path d="M97.875,27.625025H122.875"></path><g class="match-fragment" transform="matrix(1,0,0,1,0,5.9844)"><path d="M0,21.640625q10,0 10,-10v-1.640625q0,-10 10,-10h72.875q10,0 10,10v1.640625q0,10 10,10M15,21.640625q-10,0 -10,10v1.640625q0,10 10,10h82.875q10,0 10,-10v-1.640625q0,-10 -10,-10M107.875,36.640625l5,-5m-5,5l-5,-5"></path><g class="any-character" transform="matrix(1,0,0,1,15,10)"><g class="label"><rect width="82.875" height="23.28125"></rect><text x="0" y="0" transform="matrix(1,0,0,1,5,16.6406)"><tspan>any character</tspan></text></g></g></g><g class="match-fragment charset" transform="matrix(1,0,0,1,122.875,0)"><rect rx="3" ry="3" class="charset-box" transform="matrix(1,0,0,1,0,11)" width="72.67190170288086" height="33.25"></rect><text x="0" y="0" class="charset-label" transform="matrix(1,0,0,1,0,11)"><tspan>One of:</tspan></text><g transform="matrix(1,0,0,1,5,16)"><g class="charset-range" transform="matrix(1,0,0,1,0,0)"><text x="0" y="0" transform="matrix(1,0,0,1,29.6719,15.75)">-</text><g class="literal" transform="matrix(1,0,0,1,0,0)"><g class="label"><rect width="24.671875" height="23.25" rx="3" ry="3"></rect><text x="0" y="0" transform="matrix(1,0,0,1,5,16.625)"><tspan class="quote">“</tspan><tspan>a</tspan><tspan class="quote">”</tspan></text></g></g><g class="literal" transform="matrix(1,0,0,1,38.6719,0)"><g class="label"><rect width="24" height="23.25" rx="3" ry="3"></rect><text x="0" y="0" transform="matrix(1,0,0,1,5,16.625)"><tspan class="quote">“</tspan><tspan>z</tspan><tspan class="quote">”</tspan></text></g></g></g></g></g></g></g><g class="match-fragment subexp" transform="matrix(1,0,0,1,306.25,106.1562)"><rect rx="3" ry="3" class="subexp-box" transform="matrix(1,0,0,1,0,11)" width="218.203125" height="69.2656478881836"></rect><text x="0" y="0" class="subexp-label" transform="matrix(1,0,0,1,0,11)"><tspan>positive lookahead</tspan></text><g class="regexp match" transform="matrix(1,0,0,1,10,21)"><path d="M97.875,27.625025H122.875"></path><g class="match-fragment" transform="matrix(1,0,0,1,0,5.9844)"><path d="M0,21.640625q10,0 10,-10v-1.640625q0,-10 10,-10h72.875q10,0 10,10v1.640625q0,10 10,10M15,21.640625q-10,0 -10,10v1.640625q0,10 10,10h82.875q10,0 10,-10v-1.640625q0,-10 -10,-10M107.875,36.640625l5,-5m-5,5l-5,-5"></path><g class="any-character" transform="matrix(1,0,0,1,15,10)"><g class="label"><rect width="82.875" height="23.28125"></rect><text x="0" y="0" transform="matrix(1,0,0,1,5,16.6406)"><tspan>any character</tspan></text></g></g></g><g class="match-fragment charset" transform="matrix(1,0,0,1,122.875,0)"><rect rx="3" ry="3" class="charset-box" transform="matrix(1,0,0,1,0,11)" width="75.328125" height="33.25"></rect><text x="0" y="0" class="charset-label" transform="matrix(1,0,0,1,0,11)"><tspan>One of:</tspan></text><g transform="matrix(1,0,0,1,5,16)"><g class="charset-range" transform="matrix(1,0,0,1,0,0)"><text x="0" y="0" transform="matrix(1,0,0,1,31,15.75)">-</text><g class="literal" transform="matrix(1,0,0,1,0,0)"><g class="label"><rect width="26" height="23.25" rx="3" ry="3"></rect><text x="0" y="0" transform="matrix(1,0,0,1,5,16.625)"><tspan class="quote">“</tspan><tspan>A</tspan><tspan class="quote">”</tspan></text></g></g><g class="literal" transform="matrix(1,0,0,1,40,0)"><g class="label"><rect width="25.328125" height="23.25" rx="3" ry="3"></rect><text x="0" y="0" transform="matrix(1,0,0,1,5,16.625)"><tspan class="quote">“</tspan><tspan>Z</tspan><tspan class="quote">”</tspan></text></g></g></g></g></g></g></g><g class="match-fragment subexp" transform="matrix(1,0,0,1,534.4532,112.1406)"><rect rx="3" ry="3" class="subexp-box" transform="matrix(1,0,0,1,0,11)" width="174.890625" height="63.28125"></rect><text x="0" y="0" class="subexp-label" transform="matrix(1,0,0,1,0,11)"><tspan>positive lookahead</tspan></text><g class="regexp match" transform="matrix(1,0,0,1,10,21)"><path d="M97.875,21.640625H122.875"></path><g class="match-fragment" transform="matrix(1,0,0,1,0,0)"><path d="M0,21.640625q10,0 10,-10v-1.640625q0,-10 10,-10h72.875q10,0 10,10v1.640625q0,10 10,10M15,21.640625q-10,0 -10,10v1.640625q0,10 10,10h82.875q10,0 10,-10v-1.640625q0,-10 -10,-10M107.875,36.640625l5,-5m-5,5l-5,-5"></path><g class="any-character" transform="matrix(1,0,0,1,15,10)"><g class="label"><rect width="82.875" height="23.28125"></rect><text x="0" y="0" transform="matrix(1,0,0,1,5,16.6406)"><tspan>any character</tspan></text></g></g></g><g class="match-fragment escape" transform="matrix(1,0,0,1,122.875,10)"><g class="label"><rect width="32.015625" height="23.28125" rx="3" ry="3"></rect><text x="0" y="0" transform="matrix(1,0,0,1,5,16.6406)"><tspan>digit</tspan></text></g></g></g></g><g class="match-fragment subexp" transform="matrix(1,0,0,1,719.3438,21.3906)"><rect rx="3" ry="3" class="subexp-box" transform="matrix(1,0,0,1,0,11)" width="183.0625" height="233.7812957763672"></rect><text x="0" y="0" class="subexp-label" transform="matrix(1,0,0,1,0,11)"><tspan>positive lookahead</tspan></text><g class="regexp match" transform="matrix(1,0,0,1,10,21)"><path d="M97.875,112.390625H122.875"></path><g class="match-fragment" transform="matrix(1,0,0,1,0,90.75)"><path d="M0,21.640625q10,0 10,-10v-1.640625q0,-10 10,-10h72.875q10,0 10,10v1.640625q0,10 10,10M15,21.640625q-10,0 -10,10v1.640625q0,10 10,10h82.875q10,0 10,-10v-1.640625q0,-10 -10,-10M107.875,36.640625l5,-5m-5,5l-5,-5"></path><g class="any-character" transform="matrix(1,0,0,1,15,10)"><g class="label"><rect width="82.875" height="23.28125"></rect><text x="0" y="0" transform="matrix(1,0,0,1,5,16.6406)"><tspan>any character</tspan></text></g></g></g><g class="match-fragment charset" transform="matrix(1,0,0,1,122.875,0)"><rect rx="3" ry="3" class="charset-box" transform="matrix(1,0,0,1,0,11)" width="40.1875" height="202.7812957763672"></rect><text x="0" y="0" class="charset-label" transform="matrix(1,0,0,1,0,11)"><tspan>One of:</tspan></text><g transform="matrix(1,0,0,1,5,16)"><g class="literal" transform="matrix(1,0,0,1,0,0)"><g class="label"><rect width="30.1875" height="23.28125" rx="3" ry="3"></rect><text x="0" y="0" transform="matrix(1,0,0,1,5,16.6406)"><tspan class="quote">“</tspan><tspan>@</tspan><tspan class="quote">”</tspan></text></g></g><g class="literal" transform="matrix(1,0,0,1,2.7578,28.2813)"><g class="label"><rect width="24.671875" height="23.25" rx="3" ry="3"></rect><text x="0" y="0" transform="matrix(1,0,0,1,5,16.625)"><tspan class="quote">“</tspan><tspan>$</tspan><tspan class="quote">”</tspan></text></g></g><g class="literal" transform="matrix(1,0,0,1,4.4297,56.5313)"><g class="label"><rect width="21.328125" height="23.25" rx="3" ry="3"></rect><text x="0" y="0" transform="matrix(1,0,0,1,5,16.625)"><tspan class="quote">“</tspan><tspan>!</tspan><tspan class="quote">”</tspan></text></g></g><g class="literal" transform="matrix(1,0,0,1,0.7578,84.7813)"><g class="label"><rect width="28.671875" height="23.25" rx="3" ry="3"></rect><text x="0" y="0" transform="matrix(1,0,0,1,5,16.625)"><tspan class="quote">“</tspan><tspan>%</tspan><tspan class="quote">”</tspan></text></g></g><g class="literal" transform="matrix(1,0,0,1,3.7578,113.0313)"><g class="label"><rect width="22.671875" height="23.25" rx="3" ry="3"></rect><text x="0" y="0" transform="matrix(1,0,0,1,5,16.625)"><tspan class="quote">“</tspan><tspan>*</tspan><tspan class="quote">”</tspan></text></g></g><g class="literal" transform="matrix(1,0,0,1,2.7578,141.2813)"><g class="label"><rect width="24.671875" height="23.25" rx="3" ry="3"></rect><text x="0" y="0" transform="matrix(1,0,0,1,5,16.625)"><tspan class="quote">“</tspan><tspan>?</tspan><tspan class="quote">”</tspan></text></g></g><g class="literal" transform="matrix(1,0,0,1,2.0938,169.5313)"><g class="label"><rect width="26" height="23.25" rx="3" ry="3"></rect><text x="0" y="0" transform="matrix(1,0,0,1,5,16.625)"><tspan class="quote">“</tspan><tspan>&amp;</tspan><tspan class="quote">”</tspan></text></g></g></g></g></g></g><g class="match-fragment" transform="matrix(1,0,0,1,912.4063,0)"><path d="M10,154.78125q-10,0 -10,10v133.78125q0,10 10,10h75.328125q10,0 10,-10v-133.78125q0,-10 -10,-10M95.328125,169.78125l5,-5m-5,5l-5,-5"></path><g class="charset" transform="matrix(1,0,0,1,10,0)"><rect rx="3" ry="3" class="charset-box" transform="matrix(1,0,0,1,0,11)" width="75.328125" height="287.5625"></rect><text x="0" y="0" class="charset-label" transform="matrix(1,0,0,1,0,11)"><tspan>One of:</tspan></text><g transform="matrix(1,0,0,1,5,16)"><g class="charset-range" transform="matrix(1,0,0,1,0,0)"><text x="0" y="0" transform="matrix(1,0,0,1,31,15.75)">-</text><g class="literal" transform="matrix(1,0,0,1,0,0)"><g class="label"><rect width="26" height="23.25" rx="3" ry="3"></rect><text x="0" y="0" transform="matrix(1,0,0,1,5,16.625)"><tspan class="quote">“</tspan><tspan>A</tspan><tspan class="quote">”</tspan></text></g></g><g class="literal" transform="matrix(1,0,0,1,40,0)"><g class="label"><rect width="25.328125" height="23.25" rx="3" ry="3"></rect><text x="0" y="0" transform="matrix(1,0,0,1,5,16.625)"><tspan class="quote">“</tspan><tspan>Z</tspan><tspan class="quote">”</tspan></text></g></g></g><g class="charset-range" transform="matrix(1,0,0,1,1.3281,28.25)"><text x="0" y="0" transform="matrix(1,0,0,1,29.6719,15.75)">-</text><g class="literal" transform="matrix(1,0,0,1,0,0)"><g class="label"><rect width="24.671875" height="23.25" rx="3" ry="3"></rect><text x="0" y="0" transform="matrix(1,0,0,1,5,16.625)"><tspan class="quote">“</tspan><tspan>a</tspan><tspan class="quote">”</tspan></text></g></g><g class="literal" transform="matrix(1,0,0,1,38.6719,0)"><g class="label"><rect width="24" height="23.25" rx="3" ry="3"></rect><text x="0" y="0" transform="matrix(1,0,0,1,5,16.625)"><tspan class="quote">“</tspan><tspan>z</tspan><tspan class="quote">”</tspan></text></g></g></g><g class="charset-escape" transform="matrix(1,0,0,1,16.6563,56.5)"><g class="label"><rect width="32.015625" height="23.28125" rx="3" ry="3"></rect><text x="0" y="0" transform="matrix(1,0,0,1,5,16.6406)"><tspan>digit</tspan></text></g></g><g class="literal" transform="matrix(1,0,0,1,17.5703,84.7813)"><g class="label"><rect width="30.1875" height="23.28125" rx="3" ry="3"></rect><text x="0" y="0" transform="matrix(1,0,0,1,5,16.6406)"><tspan class="quote">“</tspan><tspan>@</tspan><tspan class="quote">”</tspan></text></g></g><g class="literal" transform="matrix(1,0,0,1,20.3281,113.0625)"><g class="label"><rect width="24.671875" height="23.25" rx="3" ry="3"></rect><text x="0" y="0" transform="matrix(1,0,0,1,5,16.625)"><tspan class="quote">“</tspan><tspan>$</tspan><tspan class="quote">”</tspan></text></g></g><g class="literal" transform="matrix(1,0,0,1,22,141.3125)"><g class="label"><rect width="21.328125" height="23.25" rx="3" ry="3"></rect><text x="0" y="0" transform="matrix(1,0,0,1,5,16.625)"><tspan class="quote">“</tspan><tspan>!</tspan><tspan class="quote">”</tspan></text></g></g><g class="literal" transform="matrix(1,0,0,1,18.3281,169.5625)"><g class="label"><rect width="28.671875" height="23.25" rx="3" ry="3"></rect><text x="0" y="0" transform="matrix(1,0,0,1,5,16.625)"><tspan class="quote">“</tspan><tspan>%</tspan><tspan class="quote">”</tspan></text></g></g><g class="literal" transform="matrix(1,0,0,1,21.3281,197.8125)"><g class="label"><rect width="22.671875" height="23.25" rx="3" ry="3"></rect><text x="0" y="0" transform="matrix(1,0,0,1,5,16.625)"><tspan class="quote">“</tspan><tspan>*</tspan><tspan class="quote">”</tspan></text></g></g><g class="literal" transform="matrix(1,0,0,1,20.3281,226.0625)"><g class="label"><rect width="24.671875" height="23.25" rx="3" ry="3"></rect><text x="0" y="0" transform="matrix(1,0,0,1,5,16.625)"><tspan class="quote">“</tspan><tspan>?</tspan><tspan class="quote">”</tspan></text></g></g><g class="literal" transform="matrix(1,0,0,1,19.6641,254.3125)"><g class="label"><rect width="26" height="23.25" rx="3" ry="3"></rect><text x="0" y="0" transform="matrix(1,0,0,1,5,16.625)"><tspan class="quote">“</tspan><tspan>&amp;</tspan><tspan class="quote">”</tspan></text></g></g></g></g><text x="0" y="0" class="repeat-label" transform="matrix(1,0,0,1,62.25,319.5625)"><tspan>7+ times</tspan><title><text x="0" y="0">repeats 8+ times in total</text></title></text></g><g class="match-fragment" transform="matrix(1,0,0,1,1022.7344,143.1563)"><g class="label anchor"><rect width="66.71875" height="23.25"></rect><text x="0" y="0" transform="matrix(1,0,0,1,5,16.625)"><tspan>End of line</tspan></text></g></g></g><path d="M10,154.7813H0M1099.45315,154.7813H1109.453125"></path><circle cx="0" cy="154.7813" r="5"></circle><circle cx="1109.453125" cy="154.7813" r="5"></circle></g></svg>
        